<?xml version="1.0" encoding="utf-8"?>
<!-- Generator: Adobe Illustrator 24.2.0, SVG Export Plug-In . SVG Version: 6.00 Build 0)  -->
<svg version="1.1" id="Layer_1" xmlns="http://www.w3.org/2000/svg" xmlns:xlink="http://www.w3.org/1999/xlink" x="0px" y="0px"
	 viewBox="0 0 450 450" style="enable-background:new 0 0 450 450;" xml:space="preserve">
<style type="text/css">
	.st0{fill:#F29100;}
	.st1{fill:none;stroke:#F29100;stroke-width:2.5;}
	.st2{fill:#6F6F6F;}
</style>
<g>
	<g>
		<g>
			<path class="st0" d="M104.4,36.3c7.6,0,13.8-6.2,13.8-13.8c0-7.6-6.2-13.8-13.8-13.8c-7.6,0-13.8,6.2-13.8,13.8c0,0,0,0,0,0
				C90.6,30.1,96.7,36.3,104.4,36.3"/>
			<path class="st0" d="M33,60.1c7.6,0,13.8-6.2,13.8-13.8c0-7.6-6.2-13.8-13.8-13.8c-7.6,0-13.8,6.2-13.8,13.8c0,0,0,0,0,0
				C19.2,53.9,25.4,60.1,33,60.1L33,60.1"/>
			<path class="st0" d="M25.5,147.7c9,0,16.3-7.3,16.3-16.3c0-9-7.3-16.3-16.3-16.3c-9,0-16.3,7.3-16.3,16.2
				C9.2,140.4,16.5,147.7,25.5,147.7C25.5,147.7,25.5,147.7,25.5,147.7"/>
			<path class="st0" d="M245.8,209.1c9,0,16.3-7.3,16.3-16.3c0-9-7.3-16.3-16.3-16.3c-9,0-16.3,7.3-16.3,16.3c0,0,0,0,0,0
				C229.6,201.8,236.8,209.1,245.8,209.1C245.8,209.1,245.8,209.1,245.8,209.1"/>
			<path class="st0" d="M388.6,92.6c9,0,16.3-7.3,16.3-16.3s-7.3-16.3-16.3-16.3s-16.3,7.3-16.3,16.3l0,0
				C372.3,85.3,379.6,92.6,388.6,92.6C388.6,92.6,388.6,92.6,388.6,92.6"/>
			<path class="st0" d="M113.1,77.6c6.2,0,11.3-5.1,11.3-11.3c0-6.2-5.1-11.3-11.3-11.3c-6.2,0-11.3,5-11.3,11.3
				C101.8,72.6,106.9,77.6,113.1,77.6"/>
			<path class="st0" d="M230.8,107.7c6.2,0,11.3-5.1,11.2-11.3c0-6.2-5.1-11.3-11.3-11.2c-6.2,0-11.3,5.1-11.2,11.3
				C219.6,102.6,224.6,107.7,230.8,107.7L230.8,107.7"/>
			<path class="st0" d="M303.4,115.2c6.2,0,11.3-5,11.3-11.3s-5-11.3-11.3-11.3c-6.2,0-11.3,5-11.3,11.3l0,0
				C292.2,110.1,297.2,115.2,303.4,115.2"/>
			<path class="st0" d="M274,168.4c6.2,0,11.3-5,11.3-11.3c0-6.2-5-11.3-11.3-11.3c-6.2,0-11.3,5-11.3,11.2
				C262.7,163.3,267.7,168.4,274,168.4C274,168.4,274,168.4,274,168.4"/>
			<path class="st0" d="M135.7,205.3c6.2,0,11.3-5,11.3-11.3s-5-11.3-11.3-11.3s-11.3,5-11.3,11.3c0,0,0,0,0,0
				C124.4,200.3,129.4,205.3,135.7,205.3"/>
			<path class="st0" d="M200.8,300.5c6.2,0,11.3-5,11.3-11.3c0-6.2-5-11.3-11.3-11.3c-6.2,0-11.3,5-11.3,11.3c0,0,0,0,0,0
				C189.5,295.4,194.5,300.5,200.8,300.5"/>
			<path class="st0" d="M167.6,251c6.2,0,11.3-5,11.3-11.3s-5-11.3-11.3-11.3s-11.3,5-11.3,11.3c0,0,0,0,0,0
				C156.3,246,161.4,251,167.6,251"/>
			<path class="st0" d="M141.9,267.3c6.2,0,11.3-5,11.3-11.3c0-6.2-5-11.3-11.3-11.3c-6.2,0-11.3,5-11.3,11.3c0,0,0,0,0,0
				C130.6,262.3,135.7,267.3,141.9,267.3"/>
		</g>
		<line class="st1" x1="34.9" y1="48.2" x2="229.6" y2="95.1"/>
		<line class="st1" x1="35.8" y1="137.4" x2="131.3" y2="190.3"/>
		<line class="st1" x1="113" y1="27.6" x2="224.6" y2="92"/>
		<line class="st1" x1="106.9" y1="31.3" x2="134.4" y2="184.7"/>
		<line class="st1" x1="41.7" y1="43.8" x2="97.5" y2="26.3"/>
		<line class="st1" x1="32.4" y1="121.4" x2="99.3" y2="31.3"/>
		<line class="st1" x1="148.2" y1="259.2" x2="192.6" y2="285.5"/>
		<line class="st1" x1="149.4" y1="251.6" x2="236.4" y2="199.7"/>
		<line class="st1" x1="142.5" y1="202.8" x2="195.1" y2="281.1"/>
		<line class="st1" x1="280.3" y1="152.7" x2="377.9" y2="83.2"/>
		<line class="st1" x1="305.3" y1="103.9" x2="375.4" y2="80.1"/>
		<line class="st1" x1="230.8" y1="104.5" x2="244" y2="177.8"/>
		<line class="st1" x1="136.9" y1="202.8" x2="141.9" y2="247.9"/>
		<line class="st1" x1="235.2" y1="102.7" x2="268.4" y2="149"/>
		<line class="st1" x1="204.5" y1="280.4" x2="239.6" y2="205.9"/>
		<line class="st1" x1="255.2" y1="181.5" x2="269.6" y2="164"/>
		<line class="st1" x1="278.4" y1="148.4" x2="299.7" y2="112"/>
	</g>
	<g>
		<g>
			<path class="st2" d="M28.8,373.1c2.4,2.3,5.7,3.4,10.2,3.4c2.9,0.1,5.8-0.8,8.2-2.4c2.3-1.6,3.7-3.2,4.2-5h13.8
				c-2.2,6.9-5.6,11.7-10.1,14.7c-4.6,2.9-10.1,4.4-16.6,4.4c-4.1,0.1-8.3-0.7-12.1-2.2c-3.5-1.3-6.6-3.4-9.2-6.1
				c-2.6-2.7-4.5-6-5.8-9.5c-1.4-3.9-2.1-8-2-12.1c0-4.1,0.6-8.1,2-11.9c2.6-7.2,8.1-12.9,15.2-15.9c3.8-1.6,7.8-2.4,11.9-2.3
				c4.4-0.1,8.7,0.9,12.7,2.8c3.5,1.8,6.6,4.4,8.9,7.6c2.3,3.2,4,6.9,5,10.8c1,4.1,1.4,8.4,1.1,12.7H24.9
				C25.1,367.1,26.4,370.8,28.8,373.1z M46.5,343.1c-1.9-2.1-4.7-3.1-8.6-3.1c-2.2-0.1-4.3,0.4-6.2,1.3c-1.5,0.7-2.9,1.8-4,3.1
				c-1,1.2-1.7,2.5-2.1,4c-0.4,1.2-0.6,2.5-0.7,3.8h25.5C49.7,348.2,48.4,345.1,46.5,343.1L46.5,343.1z"/>
			<path class="st2" d="M101.5,340c-2.2-0.1-4.4,0.5-6.3,1.7c-1.7,1.1-3.1,2.7-4.1,4.4c-1.1,1.9-1.9,3.9-2.3,6
				c-0.4,2.1-0.7,4.3-0.7,6.5c0,2.1,0.2,4.2,0.7,6.3c0.4,2,1.1,4,2.1,5.8c1,1.7,2.3,3.2,4,4.2c1.9,1.2,4,1.7,6.2,1.7
				c3.8,0,6.6-1.1,8.7-3.1c2.1-2.3,3.5-5.3,3.8-8.4h15.1c-1,7.6-4,13.4-8.8,17.3s-11.1,6-18.6,6c-4,0-8-0.7-11.8-2.2
				c-3.4-1.3-6.5-3.4-9.1-6c-2.5-2.6-4.5-5.8-5.9-9.2c-1.4-3.8-2.1-7.7-2.1-11.8c0-4.2,0.6-8.3,1.9-12.3c1.2-3.6,3.1-7,5.7-9.8
				c2.5-2.8,5.7-5,9.2-6.5c3.9-1.6,8.1-2.4,12.4-2.3c3.3,0,6.6,0.4,9.8,1.3c3,0.8,5.9,2.2,8.4,4c2.5,1.8,4.5,4.1,6,6.7
				c1.6,2.9,2.5,6.2,2.7,9.5h-15.3C112.1,343.3,108.2,340,101.5,340z"/>
			<path class="st2" d="M163.8,340c-2.2-0.1-4.4,0.5-6.3,1.7c-1.7,1.1-3.1,2.7-4.1,4.4c-1.1,1.9-1.9,3.9-2.3,6
				c-0.4,2.1-0.7,4.3-0.7,6.5c0,2.1,0.2,4.2,0.7,6.3c0.4,2,1.1,4,2.1,5.8c1,1.7,2.3,3.2,4,4.2c1.8,1.2,4,1.7,6.2,1.7
				c3.8,0,6.6-1,8.7-3.1c2.1-2.3,3.5-5.3,3.8-8.4H191c-1,7.6-4,13.4-8.8,17.3s-11.1,6-18.7,6c-4,0-8-0.7-11.7-2.2
				c-3.4-1.3-6.5-3.4-9.1-6c-2.5-2.6-4.5-5.8-5.9-9.2c-1.4-3.7-2.1-7.7-2.1-11.8c0-4.2,0.6-8.3,1.9-12.3c1.2-3.6,3.1-7,5.7-9.8
				c2.5-2.8,5.7-5,9.2-6.5c3.9-1.6,8.1-2.4,12.3-2.3c3.3,0,6.6,0.4,9.8,1.3c3,0.8,5.9,2.2,8.4,4c5.3,3.8,8.5,9.8,8.7,16.3h-15.3
				C174.3,343.2,170.5,340,163.8,340z"/>
			<path class="st2" d="M215.5,373.1c2.4,2.3,5.7,3.4,10.2,3.4c2.9,0.1,5.8-0.8,8.2-2.4c2.3-1.6,3.7-3.2,4.2-5h13.8
				c-2.2,6.9-5.6,11.7-10.2,14.7c-4.6,2.9-10.1,4.4-16.5,4.4c-4.1,0.1-8.3-0.7-12.1-2.2c-3.5-1.3-6.6-3.4-9.2-6.1
				c-2.6-2.7-4.5-6-5.8-9.5c-1.4-3.9-2.1-8-2-12.1c0-4.1,0.7-8.1,2.1-11.9c2.6-7.2,8.1-12.9,15.2-15.9c3.8-1.6,7.8-2.4,11.9-2.3
				c4.4-0.1,8.7,0.9,12.7,2.8c3.5,1.8,6.6,4.4,8.9,7.6c2.3,3.2,4,6.9,5,10.8c1,4.1,1.4,8.4,1.1,12.7h-41.2
				C211.9,367.1,213.2,370.8,215.5,373.1z M233.3,343.1c-1.9-2.1-4.7-3.1-8.6-3.1c-2.1-0.1-4.3,0.4-6.2,1.3c-1.5,0.8-2.9,1.8-4,3.1
				c-1,1.2-1.7,2.5-2.1,4c-0.4,1.2-0.6,2.5-0.7,3.8h25.5C236.4,348.2,235.1,345.1,233.3,343.1L233.3,343.1z"/>
			<path class="st2" d="M275.9,329.7v7.9h0.3c1.8-3.1,4.5-5.6,7.7-7.2c3-1.5,6.3-2.2,9.7-2.3c3.5-0.1,7,0.5,10.3,1.7
				c2.5,1,4.7,2.6,6.3,4.8c1.6,2.2,2.7,4.7,3.3,7.4c0.7,3.2,1,6.4,0.9,9.7v35.1h-15.7v-32.2c0-4.7-0.7-8.2-2.2-10.5
				s-4.1-3.5-7.8-3.5c-4.3,0-7.4,1.3-9.3,3.8c-1.9,2.5-2.9,6.7-2.9,12.5v29.9H261v-57.1H275.9z"/>
			<path class="st2" d="M352.6,340c-2.2-0.1-4.4,0.5-6.3,1.7c-1.7,1.1-3.1,2.7-4.1,4.4c-1.1,1.9-1.9,3.9-2.3,6
				c-0.4,2.1-0.7,4.3-0.7,6.5c0,2.1,0.2,4.2,0.7,6.3c0.4,2,1.1,4,2.2,5.8c1,1.7,2.3,3.2,4,4.2c1.8,1.2,4,1.7,6.2,1.7
				c3.8,0,6.6-1.1,8.7-3.1c2.1-2.3,3.5-5.3,3.8-8.4h15.1c-1,7.6-4,13.4-8.8,17.3c-4.9,4-11.1,6-18.6,6c-4,0-8-0.7-11.8-2.2
				c-3.4-1.3-6.5-3.4-9.1-6c-2.5-2.6-4.5-5.8-5.9-9.2c-1.4-3.8-2.1-7.7-2.1-11.8c0-4.2,0.6-8.3,1.9-12.3c1.2-3.6,3.1-7,5.7-9.8
				c2.5-2.8,5.7-5,9.2-6.5c3.9-1.6,8.1-2.4,12.4-2.3c3.3,0,6.6,0.4,9.8,1.3c3,0.8,5.9,2.2,8.4,4c2.5,1.8,4.5,4.1,6,6.7
				c1.6,2.9,2.5,6.2,2.7,9.5h-15.3C363.2,343.3,359.3,340,352.6,340z"/>
			<path class="st2" d="M387,347.3c0.1-3.2,1-6.4,2.8-9.2c1.6-2.4,3.7-4.4,6.2-5.9c2.6-1.5,5.5-2.6,8.4-3.1c3.1-0.6,6.3-0.9,9.4-0.9
				c2.9,0,5.8,0.2,8.7,0.6c2.8,0.4,5.5,1.2,8.1,2.4c2.4,1.1,4.4,2.8,6,4.9c1.6,2.5,2.4,5.4,2.3,8.4v29.7c0,2.5,0.1,4.9,0.4,7.4
				c0.1,1.9,0.7,3.7,1.5,5.3h-15.9c-0.3-0.9-0.5-1.8-0.7-2.7c-0.2-0.9-0.3-1.9-0.4-2.8c-2.4,2.5-5.5,4.4-8.8,5.4
				c-3.4,1-6.9,1.6-10.4,1.5c-2.6,0-5.1-0.3-7.6-1c-2.2-0.6-4.3-1.7-6.2-3.1c-1.8-1.4-3.2-3.2-4.1-5.3c-1-2.4-1.6-5-1.5-7.6
				c-0.1-2.8,0.5-5.5,1.7-8c1.1-2,2.6-3.7,4.4-5c1.9-1.3,4-2.2,6.2-2.8c2.3-0.6,4.6-1.1,7-1.5c2.3-0.4,4.7-0.7,7-0.9
				c2-0.2,4.1-0.5,6.1-1c1.5-0.3,3-1,4.2-1.9c1.1-0.9,1.6-2.3,1.4-3.7c0.1-1.4-0.2-2.8-0.8-4c-0.5-1-1.3-1.8-2.2-2.3
				c-1-0.6-2.1-1-3.2-1.1c-1.3-0.2-2.6-0.3-3.9-0.3c-2.6-0.1-5.1,0.6-7.3,2c-1.8,1.3-2.8,3.5-3.1,6.6L387,347.3z M423.2,358.9
				c-0.7,0.6-1.6,1.1-2.5,1.4c-1,0.3-2.1,0.6-3.2,0.8c-1.1,0.2-2.3,0.4-3.6,0.6s-2.5,0.3-3.8,0.5c-1.2,0.2-2.3,0.5-3.5,0.9
				c-1.1,0.3-2.1,0.8-3,1.5c-0.8,0.6-1.5,1.4-2,2.4c-0.6,1.1-0.8,2.4-0.8,3.6c0,1.2,0.2,2.4,0.8,3.5c0.5,0.9,1.2,1.7,2.1,2.3
				c0.9,0.6,2,1,3.1,1.2c1.2,0.2,2.4,0.3,3.6,0.3c2.5,0.1,5-0.4,7.2-1.5c1.6-0.9,2.8-2.2,3.8-3.7c0.8-1.3,1.3-2.8,1.5-4.4
				c0.2-1.2,0.2-2.3,0.3-3.5L423.2,358.9z"/>
		</g>
		<g>
			<path class="st2" d="M17.7,414.6l0.1,3.1c0.6-1.1,1.5-2,2.6-2.6c1.1-0.6,2.3-0.9,3.5-0.9c3,0,4.9,1.2,5.7,3.7
				c0.6-1.1,1.6-2.1,2.7-2.7c1.1-0.7,2.4-1,3.8-1c4.1,0,6.2,2.2,6.2,6.7v12.7h-2.1V421c0.1-1.4-0.3-2.7-1.1-3.8
				c-0.9-0.9-2.2-1.4-3.5-1.2c-1.4,0-2.8,0.5-3.8,1.5c-1,0.9-1.6,2.1-1.8,3.5v12.6H28v-12.7c0.1-1.3-0.3-2.6-1.2-3.6
				c-0.9-0.9-2.2-1.3-3.5-1.2c-1.2,0-2.4,0.4-3.4,1.1c-1,0.9-1.8,2.1-2.1,3.4v13h-2.1v-19L17.7,414.6z"/>
			<path class="st2" d="M59.2,433.6c-0.3-0.9-0.4-1.8-0.4-2.7c-0.7,1-1.7,1.7-2.8,2.2c-1.1,0.5-2.4,0.8-3.6,0.8
				c-1.6,0.1-3.2-0.5-4.4-1.5c-1.1-1-1.7-2.4-1.7-3.9c0-1.8,0.8-3.4,2.3-4.4c1.9-1.2,4.2-1.8,6.4-1.6h3.8v-2.1
				c0.1-1.2-0.4-2.4-1.3-3.2c-1-0.8-2.3-1.3-3.7-1.2c-1.3-0.1-2.6,0.3-3.6,1.1c-0.9,0.6-1.4,1.6-1.4,2.7h-2.1c0-1.6,0.8-3,2.1-3.9
				c1.5-1.1,3.3-1.7,5.2-1.7c1.8-0.1,3.6,0.5,5,1.6c1.3,1.1,1.9,2.7,1.9,4.4v9c-0.1,1.4,0.1,2.8,0.6,4.1v0.2L59.2,433.6z
				 M52.6,432.1c1.3,0,2.6-0.3,3.8-1c1.1-0.6,1.9-1.6,2.4-2.7v-4.2H55c-1.7-0.1-3.4,0.3-4.9,1.2c-1.7,1-2.3,3.2-1.3,4.9
				c0.2,0.3,0.4,0.6,0.7,0.9C50.4,431.7,51.5,432.1,52.6,432.1L52.6,432.1z"/>
			<path class="st2" d="M77.1,428.7c0-1-0.4-1.9-1.2-2.5c-1.1-0.8-2.4-1.3-3.8-1.5c-1.4-0.2-2.7-0.7-3.9-1.2c-0.8-0.4-1.5-1-2.1-1.7
				c-0.5-0.7-0.7-1.6-0.7-2.4c0-1.5,0.7-2.9,1.9-3.7c1.4-1,3.1-1.5,4.8-1.5c1.8-0.1,3.6,0.5,5.1,1.6c1.3,1,2,2.5,1.9,4.1H77
				c0-1.1-0.5-2.1-1.4-2.8c-1-0.8-2.3-1.1-3.5-1.1c-1.2-0.1-2.4,0.3-3.3,0.9c-0.8,0.5-1.3,1.4-1.2,2.4c0,0.9,0.3,1.7,1,2.2
				c1.2,0.7,2.5,1.2,3.8,1.4c1.4,0.3,2.8,0.8,4.1,1.4c0.8,0.4,1.5,1,2,1.8c0.5,0.8,0.7,1.6,0.7,2.5c0,1.5-0.7,3-1.9,3.8
				c-1.5,1-3.3,1.5-5.1,1.4c-1.9,0.1-3.8-0.5-5.4-1.6c-1.3-0.9-2.1-2.5-2.1-4.1h2.2c0,1.1,0.6,2.2,1.6,2.9c1.1,0.7,2.5,1.1,3.8,1
				c1.3,0,2.5-0.3,3.6-1C76.5,430.6,77.1,429.7,77.1,428.7z"/>
			<path class="st2" d="M86.8,409.7v4.9h3.9v1.7h-3.9V429c-0.1,0.8,0.1,1.6,0.6,2.3c0.5,0.6,1.2,0.9,1.9,0.8c0.6,0,1.1-0.1,1.7-0.2
				l0.1,1.7c-0.7,0.2-1.5,0.3-2.2,0.3c-1.2,0.1-2.4-0.4-3.1-1.3c-0.7-1.1-1.1-2.4-1-3.7v-12.7h-3.5v-1.7h3.5v-4.9H86.8z"/>
			<path class="st2" d="M101,433.9c-3.1,0-6-1.7-7.4-4.5c-0.7-1.5-1.1-3.1-1.1-4.8v-0.8c0-1.7,0.3-3.4,1.1-4.9
				c0.7-1.4,1.7-2.6,3-3.5c1.2-0.8,2.6-1.3,4.1-1.3c2.1-0.1,4.1,0.8,5.5,2.4c1.4,1.8,2.1,4.1,2,6.5v1.2H94.6v0.4
				c-0.1,2,0.6,3.9,1.9,5.4c1.1,1.4,2.9,2.2,4.7,2.2c1,0,2.1-0.2,3-0.6c0.9-0.5,1.7-1.2,2.3-2l1.3,1
				C106.3,432.8,103.7,434.1,101,433.9z M100.6,416c-1.5,0-3,0.6-4,1.7c-1.2,1.3-1.9,2.9-2,4.7h11.4v-0.2c0-1.6-0.5-3.2-1.6-4.5
				C103.5,416.6,102.1,416,100.6,416z"/>
			<path class="st2" d="M120.7,416.4c-0.5-0.1-1-0.1-1.4-0.1c-1.2,0-2.4,0.3-3.3,1.1c-1,0.8-1.6,2-1.9,3.2v13.1h-2.1v-19h2.1v3
				c0.9-2.1,3-3.5,5.4-3.4c0.5,0,0.9,0.1,1.4,0.2L120.7,416.4z"/>
			<path class="st2" d="M123.5,409.1c0-0.4,0.1-0.7,0.4-1c0.3-0.3,0.7-0.4,1.1-0.4c0.4,0,0.8,0.1,1.1,0.4c0.3,0.3,0.4,0.6,0.4,1
				c0,0.4-0.1,0.7-0.4,1c-0.3,0.3-0.7,0.4-1.1,0.4c-0.4,0-0.8-0.1-1.1-0.4C123.6,409.8,123.5,409.4,123.5,409.1z M126,433.6h-2.2
				v-19h2.1L126,433.6z"/>
			<path class="st2" d="M133.1,414.6l0.1,3.2c0.6-1.1,1.6-2,2.7-2.7c1.1-0.6,2.3-0.9,3.5-0.9c1.7-0.1,3.4,0.5,4.6,1.7
				c1.1,1.5,1.6,3.3,1.5,5.2v12.5h-2.1v-12.5c0.1-1.4-0.3-2.7-1.1-3.8c-0.9-0.9-2.1-1.4-3.4-1.2c-1.3,0-2.5,0.4-3.5,1.2
				c-1,0.9-1.8,2-2.2,3.3v13h-2.1v-19L133.1,414.6z"/>
			<path class="st2" d="M149.6,423.9c-0.1-2.5,0.6-5,2-7.1c1.2-1.7,3.3-2.7,5.4-2.6c2.4-0.1,4.6,1.1,5.9,3.1l0.1-2.7h2v18.6
				c0.1,2.1-0.7,4.2-2.1,5.8c-1.5,1.5-3.5,2.2-5.6,2.1c-1.3,0-2.6-0.3-3.8-0.9c-1.1-0.5-2.1-1.3-2.8-2.4l1.2-1.3
				c1.2,1.7,3.2,2.7,5.3,2.8c1.5,0.1,3-0.5,4.1-1.6c1-1.2,1.6-2.7,1.5-4.3v-2.4c-1.4,1.9-3.6,2.9-5.9,2.8c-2.1,0.1-4.1-0.9-5.3-2.6
				c-1.4-2.1-2.1-4.6-2-7.1L149.6,423.9z M151.7,424.3c-0.1,2,0.4,4,1.5,5.7c0.9,1.4,2.5,2.2,4.1,2.1c2.4,0.1,4.6-1.3,5.5-3.5v-8.8
				c-0.4-1.1-1.2-2.1-2.1-2.8c-1-0.7-2.1-1-3.3-1c-1.6-0.1-3.2,0.7-4.1,2.1C152.2,419.5,151.7,421.5,151.7,424.3z"/>
			<path class="st2" d="M186.2,432.1c1.3,0,2.6-0.4,3.7-1.2c1-0.8,1.6-2,1.6-3.2h2c-0.1,1.1-0.4,2.2-1.1,3.2c-0.7,1-1.6,1.7-2.7,2.2
				c-1.1,0.5-2.3,0.8-3.6,0.8c-2.3,0.1-4.5-0.9-5.9-2.6c-1.5-2-2.3-4.5-2.2-7v-0.6c0-1.7,0.3-3.4,1-5c0.6-1.3,1.6-2.5,2.8-3.3
				c1.3-0.8,2.8-1.2,4.3-1.2c1.9-0.1,3.7,0.6,5.2,1.9c1.4,1.3,2.2,3,2.2,4.9h-2c0-2.8-2.4-5.1-5.2-5c0,0-0.1,0-0.1,0
				c-1.7-0.1-3.4,0.7-4.4,2c-1.1,1.7-1.7,3.7-1.6,5.8v0.6c-0.1,2,0.4,4,1.6,5.7C182.8,431.5,184.4,432.2,186.2,432.1z"/>
			<path class="st2" d="M196.2,423.8c0-1.7,0.3-3.4,1.1-4.9c1.3-2.9,4.2-4.7,7.4-4.6c2.3-0.1,4.6,0.9,6.1,2.7c1.6,2,2.5,4.5,2.4,7
				v0.5c0,1.7-0.3,3.4-1.1,5c-0.7,1.4-1.7,2.6-3,3.4c-1.3,0.8-2.9,1.2-4.4,1.2c-2.3,0.1-4.6-0.9-6.1-2.7c-1.7-2-2.5-4.5-2.4-7
				L196.2,423.8z M198.3,424.4c-0.1,2,0.5,4,1.8,5.6c2.1,2.6,5.9,2.9,8.4,0.8c0.3-0.2,0.6-0.5,0.8-0.8c1.2-1.7,1.9-3.7,1.8-5.8v-0.4
				c0-1.4-0.3-2.7-0.8-4c-0.5-1.1-1.3-2.1-2.3-2.8c-1-0.7-2.2-1-3.3-1c-1.8,0-3.5,0.8-4.6,2.2c-1.2,1.7-1.9,3.7-1.8,5.8V424.4z"/>
			<path class="st2" d="M219.2,414.6l0.1,3.1c0.6-1.1,1.5-2,2.6-2.6c1.1-0.6,2.3-0.9,3.5-0.9c3,0,4.9,1.2,5.7,3.7
				c0.6-1.1,1.6-2.1,2.7-2.7c1.1-0.7,2.4-1,3.8-1c4.1,0,6.2,2.2,6.2,6.7v12.7h-2.1V421c0.1-1.4-0.3-2.7-1.1-3.8
				c-0.9-0.9-2.2-1.4-3.5-1.2c-1.4,0-2.8,0.5-3.8,1.5c-1,0.9-1.6,2.1-1.7,3.5v12.6h-2.1v-12.7c0.1-1.3-0.3-2.6-1.1-3.6
				c-0.9-0.9-2.2-1.3-3.5-1.2c-1.2,0-2.4,0.4-3.4,1.1c-1,0.9-1.8,2-2.1,3.4v13h-2.1v-19L219.2,414.6z"/>
			<path class="st2" d="M264,424.3c0.1,2.5-0.6,5-2,7.1c-1.2,1.7-3.2,2.7-5.3,2.6c-2.3,0.1-4.6-0.9-6-2.7v9.7h-2.1v-26.3h2l0.1,2.7
				c1.3-2,3.6-3.1,6-3c2.1-0.1,4.1,0.9,5.4,2.6c1.4,2.1,2.1,4.6,1.9,7.2L264,424.3z M261.9,423.9c0.1-2-0.4-4-1.5-5.8
				c-0.9-1.4-2.5-2.2-4.2-2.1c-2.4-0.1-4.6,1.4-5.5,3.6v9.1c0.4,1,1.2,1.9,2.2,2.5c1,0.6,2.2,0.9,3.3,0.9c1.7,0.1,3.2-0.7,4.1-2.1
				C261.5,428.2,262,426,261.9,423.9L261.9,423.9z"/>
			<path class="st2" d="M270.4,433.6h-2.1v-27h2.1V433.6z"/>
			<path class="st2" d="M283.1,433.9c-3.1,0-6-1.7-7.4-4.5c-0.7-1.5-1.1-3.1-1.1-4.8v-0.8c0-1.7,0.3-3.4,1.1-4.9
				c0.7-1.4,1.7-2.6,3-3.5c1.2-0.8,2.6-1.3,4.1-1.3c2.1-0.1,4.1,0.8,5.5,2.4c1.4,1.8,2.1,4.1,2,6.5v1.2h-13.6v0.4
				c-0.1,2,0.6,3.9,1.9,5.4c1.1,1.4,2.9,2.2,4.7,2.2c1,0,2.1-0.2,3-0.6c0.9-0.5,1.7-1.2,2.3-2l1.3,1
				C288.3,432.8,285.7,434.1,283.1,433.9z M282.7,416c-1.5,0-3,0.6-4,1.7c-1.2,1.3-1.9,2.9-2,4.7h11.4v-0.2c0-1.6-0.5-3.2-1.6-4.5
				C285.6,416.6,284.1,416,282.7,416z"/>
			<path class="st2" d="M299.5,422.3l5.1-7.7h2.5l-6.5,9.3l6.7,9.7H305l-5.4-8.1l-5.4,8.1h-2.5l6.7-9.7l-6.5-9.3h2.5L299.5,422.3z"
				/>
			<path class="st2" d="M310.3,409.1c0-0.4,0.1-0.7,0.4-1c0.3-0.3,0.7-0.4,1-0.4c0.8-0.1,1.4,0.5,1.5,1.3c0,0,0,0.1,0,0.1
				c0,0.4-0.1,0.7-0.4,1c-0.3,0.3-0.7,0.4-1.1,0.4c-0.7,0.1-1.4-0.5-1.4-1.3C310.3,409.2,310.3,409.1,310.3,409.1L310.3,409.1z
				 M312.8,433.6h-2.1v-19h2.1V433.6z"/>
			<path class="st2" d="M321.5,409.7v4.9h3.9v1.7h-3.9V429c-0.1,0.8,0.1,1.6,0.6,2.3c0.5,0.6,1.2,0.9,1.9,0.8c0.6,0,1.1-0.1,1.7-0.2
				l0.1,1.7c-0.7,0.2-1.5,0.3-2.2,0.3c-1.2,0.1-2.4-0.4-3.1-1.3c-0.7-1.1-1.1-2.4-1-3.7v-12.7h-3.5v-1.7h3.5v-4.9H321.5z"/>
			<path class="st2" d="M336.1,430.6l5.6-16h2.3l-8.1,22.2l-0.4,1c-1,2.3-2.6,3.5-4.8,3.5c-0.5,0-1.1-0.1-1.6-0.2v-1.7l1.1,0.1
				c0.9,0,1.8-0.2,2.5-0.8c0.8-0.7,1.3-1.6,1.6-2.6l0.9-2.6l-7.2-18.9h2.3L336.1,430.6z"/>
		</g>
	</g>
</g>
</svg>
